<svg xmlns="http://www.w3.org/2000/svg" viewBox="0 0 64 64" width="64" height="64" role="img" aria-label="ton-mesh-harness mascot mark">
  <path d="M32 4 C19 4 10 12 8 25 C6 36 8 48 14 54 C20 60 26 60 32 60
           C38 60 44 60 50 54 C56 48 58 36 56 25 C54 12 45 4 32 4 Z" fill="#005E97"/>
  <ellipse cx="32" cy="34" rx="22" ry="22" fill="#0098EA"/>
  <ellipse cx="32" cy="44" rx="9" ry="7" fill="#FBEEDA"/>
  <ellipse cx="32" cy="40" rx="3" ry="2.4" fill="#11151A"/>
  <rect x="14" y="28" width="14" height="9" rx="4" fill="#11151A"/>
  <rect x="36" y="28" width="14" height="9" rx="4" fill="#11151A"/>
  <rect x="28" y="31" width="8" height="3" rx="1.5" fill="#11151A"/>
  <polygon points="17,35 22,28 24,29 19,36" fill="#39E0FF"/>
  <polygon points="39,35 44,28 46,29 41,36" fill="#39E0FF"/>
</svg>
