<svg xmlns="http://www.w3.org/2000/svg" viewBox="0 0 160 160" width="160" height="160" role="img" aria-label="ton-mesh-harness mascot — a cypherpunk hooded dog in sunglasses">
  <defs>
    <linearGradient id="shine" x1="0" y1="0" x2="1" y2="1">
      <stop offset="0" stop-color="#39E0FF"/><stop offset="1" stop-color="#0098EA"/>
    </linearGradient>
  </defs>
  <ellipse cx="80" cy="150" rx="44" ry="6" fill="#0098EA" opacity=".12"/>
  <path d="M80 6 C50 6 28 22 22 54 C18 80 20 106 31 124 C41 140 60 146 80 146
           C100 146 119 140 129 124 C140 106 142 80 138 54 C132 22 110 6 80 6 Z" fill="#005E97"/>
  <ellipse cx="80" cy="84" rx="54" ry="56" fill="#0070B4"/>
  <path d="M47 58 L41 28 L69 50 Z" fill="#2E92C9"/>
  <path d="M113 58 L119 28 L91 50 Z" fill="#2E92C9"/>
  <ellipse cx="80" cy="86" rx="47" ry="48" fill="#0098EA"/>
  <path d="M62 126 C60 138 58 146 56 154" stroke="#004A78" stroke-width="3.4" fill="none" stroke-linecap="round"/>
  <path d="M74 130 C74 140 73 148 73 156" stroke="#004A78" stroke-width="3.4" fill="none" stroke-linecap="round"/>
  <rect x="53" y="153" width="6" height="9" rx="3" fill="#FBEEDA"/>
  <rect x="70" y="155" width="6" height="9" rx="3" fill="#FBEEDA"/>
  <ellipse cx="80" cy="106" rx="21" ry="16" fill="#FBEEDA"/>
  <ellipse cx="80" cy="99" rx="6.4" ry="5" fill="#11151A"/>
  <path d="M80 103 L80 109 M80 109 Q72 116 65 110 M80 109 Q88 116 95 110"
        stroke="#11151A" stroke-width="2.3" fill="none" stroke-linecap="round"/>
  <path d="M40 74 L120 74" stroke="#11151A" stroke-width="3.4" stroke-linecap="round"/>
  <rect x="40" y="72" width="31" height="20" rx="8" fill="#11151A"/>
  <rect x="89" y="72" width="31" height="20" rx="8" fill="#11151A"/>
  <rect x="71" y="78" width="18" height="6" rx="3" fill="#11151A"/>
  <polygon points="46,89 56,75 61,76 51,90" fill="url(#shine)" opacity=".95"/>
  <polygon points="95,89 105,75 110,76 100,90" fill="url(#shine)" opacity=".95"/>
  <text x="62" y="90" font-family="ui-monospace,monospace" font-size="7" fill="#39FF9E" opacity=".95" text-anchor="end">10</text>
  <text x="111" y="90" font-family="ui-monospace,monospace" font-size="7" fill="#39FF9E" opacity=".95" text-anchor="end">01</text>
</svg>
